<?xml version="1.0" standalone="no"?>
<!DOCTYPE svg PUBLIC "-//W3C//DTD SVG 20010904//EN"
 "http://www.w3.org/TR/2001/REC-SVG-20010904/DTD/svg10.dtd">
<svg version="1.0" xmlns="http://www.w3.org/2000/svg"
 width="500.000000pt" height="500.000000pt" viewBox="0 0 500.000000 500.000000"
 preserveAspectRatio="xMidYMid meet">
<metadata>
Created by potrace 1.14, written by Peter Selinger 2001-2017
</metadata>
<g transform="translate(0.000000,500.000000) scale(0.100000,-0.100000)"
fill="#000000" stroke="none">
<path d="M1550 4254 c-1 -95 61 -230 151 -328 95 -104 216 -176 436 -261 196
-76 325 -156 391 -243 l25 -32 -75 35 c-123 58 -283 64 -443 14 -63 -19 -145
-55 -145 -63 0 -1 24 -1 54 2 123 10 330 -38 431 -100 46 -28 55 -30 115 -25
l65 6 -76 -23 c-142 -42 -250 -134 -284 -245 -6 -21 -2 -19 46 17 69 51 144
88 216 107 57 15 164 20 176 9 3 -3 -12 -28 -33 -55 -48 -61 -81 -145 -88
-228 l-5 -63 50 36 c68 49 146 82 236 100 79 17 207 22 207 8 0 -4 -23 -13
-51 -19 -65 -16 -133 -50 -161 -81 -21 -23 -21 -25 -3 -17 205 83 434 40 543
-103 l25 -33 -69 -68 c-38 -37 -105 -89 -149 -114 -88 -52 -78 -61 28 -26 56
19 111 46 176 88 l24 15 -17 -33 c-10 -18 -52 -69 -94 -113 -58 -61 -71 -79
-52 -73 109 32 253 164 312 285 20 41 40 87 43 103 7 27 6 27 -39 27 -64 0
-96 19 -198 116 -115 109 -228 162 -351 165 -53 1 -1 17 58 18 109 2 213 -40
339 -138 44 -34 90 -64 103 -67 29 -8 29 -18 1 -38 -39 -27 -6 -35 110 -26 54
4 73 -13 79 -74 5 -39 8 -44 20 -34 40 33 93 200 93 292 0 66 -16 96 -66 122
-22 12 -68 42 -103 67 -34 26 -77 49 -95 53 -33 6 -33 7 -28 49 7 66 -4 92
-51 122 -23 14 -67 50 -97 78 -82 78 -145 107 -75 35 53 -54 35 -51 -27 5 -77
69 -186 119 -271 123 -88 5 -83 -5 26 -60 136 -68 209 -124 321 -245 66 -70
67 -88 10 -127 -18 -12 -31 -26 -26 -31 18 -19 -102 7 -156 34 -53 27 -178
128 -169 137 2 2 31 -8 65 -23 68 -29 86 -26 56 10 -46 52 -46 59 1 19 119
-104 220 -154 232 -115 5 14 -149 187 -204 229 -21 16 -78 54 -127 85 l-88 55
-53 -20 -53 -21 21 -28 c15 -22 0 -14 -63 32 -164 122 -263 171 -543 267 -103
36 -223 80 -267 98 -164 70 -290 177 -355 305 l-34 66 -1 -41z m2023 -1153
c34 -16 73 -39 87 -51 l25 -21 -40 19 c-100 49 -139 33 -65 -27 50 -40 52 -57
3 -29 -66 37 -83 58 -83 100 0 21 2 38 5 38 3 0 33 -13 68 -29z"/>
<path d="M2086 4203 c18 -99 77 -173 224 -281 63 -47 144 -111 180 -142 36
-31 81 -65 100 -75 19 -9 72 -40 118 -67 78 -47 84 -49 117 -38 19 6 38 16 42
22 9 16 -109 125 -202 188 -42 28 -142 88 -223 132 -222 122 -276 164 -323
253 -29 55 -42 58 -33 8z"/>
<path d="M2605 4130 c24 -89 66 -152 204 -309 50 -57 100 -119 112 -137 13
-22 28 -34 43 -34 22 0 114 -22 151 -36 20 -8 20 -8 1 21 -41 63 -106 130
-236 244 -163 143 -183 162 -238 226 -34 39 -42 45 -37 25z"/>
<path d="M1663 3644 c-31 -7 -29 -24 2 -24 43 0 130 -39 163 -73 l32 -33 -52
-21 c-37 -15 -82 -23 -148 -25 -85 -4 -102 -7 -157 -37 -57 -31 -153 -118
-153 -139 0 -4 27 -6 60 -4 51 4 66 1 105 -22 41 -25 44 -29 34 -49 -7 -12
-56 -66 -110 -119 -158 -159 -212 -270 -207 -426 l3 -87 14 40 c19 58 54 107
90 128 l31 18 -6 -73 c-3 -40 -1 -100 4 -133 6 -35 6 -69 1 -83 -21 -55 -29
-154 -20 -233 10 -77 48 -187 50 -144 2 43 49 122 86 145 20 12 40 19 44 14 4
-5 13 -34 20 -65 14 -68 58 -161 100 -214 88 -109 303 -215 436 -215 l40 0
-58 33 c-94 53 -174 116 -258 204 -152 161 -236 344 -247 536 -2 53 -8 97 -11
97 -10 0 -25 -14 -53 -48 l-27 -33 -7 27 c-11 44 4 214 26 294 43 151 126 287
244 397 36 34 66 65 66 68 0 3 -8 5 -17 5 -10 0 -24 4 -32 9 -10 7 8 20 70 51
150 76 316 120 450 120 33 0 59 4 59 9 0 15 -117 61 -158 61 -48 0 -102 -10
-102 -19 0 -3 12 -14 28 -23 27 -17 27 -17 3 -18 -13 0 -45 13 -70 28 -83 51
-158 74 -256 77 -49 2 -100 1 -112 -1z"/>
<path d="M2013 3321 c-65 -24 -154 -77 -211 -127 -94 -80 -193 -259 -208 -374
l-6 -55 43 41 c42 40 87 69 94 62 2 -2 -6 -35 -17 -73 -43 -149 -23 -357 48
-498 132 -260 414 -451 709 -482 l70 -7 -57 54 c-90 83 -79 84 83 3 194 -98
331 -211 399 -330 40 -69 48 -58 26 37 -46 197 -127 315 -346 501 -235 200
-349 332 -387 453 -9 30 -20 54 -25 54 -26 0 3 -184 45 -288 30 -73 18 -73
-20 1 -63 125 -84 238 -64 352 14 78 28 110 73 161 42 48 93 79 159 98 52 15
55 18 84 79 16 34 31 66 33 71 3 5 -31 7 -76 4 -100 -6 -184 -44 -268 -121
l-57 -52 6 59 c10 96 74 203 156 259 24 16 24 17 6 37 -27 30 -155 91 -201 96
-24 3 -59 -3 -91 -15z"/>
<path d="M1472 1440 l-42 -30 17 -27 c15 -22 19 -55 22 -185 l3 -158 75 0 76
0 48 49 49 48 0 112 0 112 -46 49 c-54 58 -74 66 -111 47 -24 -13 -29 -13 -38
0 -9 12 -17 9 -53 -17z m148 -89 c5 -11 10 -59 10 -106 0 -98 -10 -125 -45
-125 -25 0 -25 0 -25 103 0 56 -3 112 -6 125 -6 19 -3 22 24 22 21 0 35 -7 42
-19z"/>
<path d="M1850 1442 l-35 -27 17 -35 c14 -27 18 -60 18 -139 0 -95 2 -107 25
-137 13 -17 41 -42 61 -55 36 -22 37 -22 71 -3 19 10 48 34 64 53 l29 36 0
162 0 163 -45 0 -45 0 0 -153 c0 -137 -2 -156 -18 -171 -18 -15 -20 -15 -35 2
-13 15 -17 39 -17 116 0 107 -13 177 -39 200 -14 13 -20 12 -51 -12z"/>
<path d="M2295 1451 c-71 -44 -95 -94 -95 -201 0 -92 14 -131 64 -177 26 -25
54 -43 68 -43 32 0 95 44 113 80 19 37 20 35 -17 58 l-32 21 -32 -37 c-31 -36
-33 -36 -51 -19 -27 26 -27 208 0 234 18 17 19 17 43 -12 13 -16 24 -36 24
-42 0 -20 22 -15 54 10 26 21 28 26 16 48 -18 35 -51 69 -82 85 -34 18 -37 18
-73 -5z"/>
<path d="M2595 1449 c-17 -12 -34 -26 -39 -30 -4 -4 -1 -18 8 -30 13 -19 16
-53 16 -186 l0 -163 45 0 45 0 2 168 3 167 26 3 c35 4 51 -19 47 -70 -2 -35
-8 -45 -30 -56 -24 -11 -28 -19 -28 -53 0 -44 12 -49 58 -25 69 36 105 111 88
180 -8 33 -51 83 -87 102 -27 13 -33 13 -65 -2 -33 -16 -36 -16 -47 0 -12 16
-15 16 -42 -5z"/>
<path d="M2951 1442 c-33 -28 -33 -29 -17 -60 13 -25 16 -63 16 -187 l0 -155
45 0 45 0 0 85 c0 84 0 85 25 85 32 0 45 -31 45 -111 l0 -59 50 0 50 0 -1 43
c-1 74 -15 137 -37 160 l-22 23 22 22 c36 36 30 84 -17 132 -48 49 -66 55
-105 35 -28 -14 -32 -14 -46 0 -19 18 -13 20 -53 -13z m141 -87 c9 -21 8 -28
-7 -45 -30 -33 -45 -25 -45 25 0 38 3 45 20 45 12 0 25 -10 32 -25z"/>
<path d="M3383 1440 c-68 -50 -73 -64 -73 -196 l0 -118 50 -48 c27 -26 58 -48
67 -48 26 0 91 49 113 85 17 27 20 50 20 140 l0 108 -53 54 c-30 29 -61 53
-69 53 -8 0 -32 -14 -55 -30z m77 -89 c5 -11 10 -60 10 -109 0 -77 -3 -91 -21
-108 -20 -18 -21 -18 -35 1 -18 24 -20 205 -2 223 18 18 36 15 48 -7z"/>
</g>
</svg>
